<svg xmlns="http://www.w3.org/2000/svg" width="696.24" height="222.94" viewBox="0 0 348.12 111.47">
  <defs>
    <style>
      .cls-1 {
        fill: #427c3e;
        fill-rule: evenodd;
      }
    </style>
  </defs>
  <path id="形狀_3" data-name="形狀 3" class="cls-1" d="M3848.79,9693.19c-2.27.31-2.48,0.42-3.95,3.23s-4.4,9.04-8.91,18.79h-1.25l-2.74-17.32h-0.15l-8.29,17.31h-1.25l-2.1-18.81c-0.31-2.8-.45-2.94-2.84-3.19l0.25-1.09h8.03l-0.25,1.09-0.87.14c-1.46.21-1.68,0.36-1.46,2.21l1.5,14.52h0.07l8.21-17.58h1.14l2.84,17.6h0.08c2.13-4.66,5.06-10.76,6.46-14.44,0.71-1.82.52-2.1-1.33-2.32l-0.87-.13,0.25-1.1h7.68Zm40.55,18.69a9.4,9.4,0,0,1-5.06,3.43c-0.91,0-1.25-.94-0.63-3.65,0.66-2.59,1.29-5.22,1.89-7.77,0.48-2.01.31-2.49-.25-2.49-1.54,0-5.59,4.24-7.34,7.19-0.45,1.75-1.02,3.89-1.42,6.03a13.807,13.807,0,0,0-2.59.71l-0.24-.28c0.98-3.76,2.02-8.06,2.9-11.89,0.25-1.08.14-1.37-.07-1.37a6.559,6.559,0,0,0-2.31,1.66l-0.52-1.02a9.835,9.835,0,0,1,5.06-3.37c0.84,0,1.02,1.19.32,4.07l-0.63,2.66h0.07a22.075,22.075,0,0,1,6.29-5.89,4.994,4.994,0,0,1,2.44-.84c0.88,0,1.92.53,0.88,4.99-0.56,2.38-1.15,4.84-1.75,7.3-0.25.97-.18,1.25,0.07,1.25a5.625,5.625,0,0,0,2.34-1.69Zm22.04-12.84c1.61,0,2.8,1.12,2.8,2.04a1.831,1.831,0,0,1-.91,1.5,0.535,0.535,0,0,1-.75-0.06,0.01,0.01,0,0,0-.01-0.01h0l-0.05-.07a3.383,3.383,0,0,0-2.75-1.62,1.908,1.908,0,0,0-1.89,1.89h0c0,1.24,1.02,2.14,2.31,3.05,2.13,1.55,3,2.6,3,4.17,0,2.71-3.46,5.34-6.43,5.34-1.68,0-3.63-1.34-3.63-2.56a1.784,1.784,0,0,1,1.01-1.51,0.681,0.681,0,0,1,.98.1,4.369,4.369,0,0,0,3.39,2.14,2.178,2.178,0,0,0,2.31-2.03v-0.01h0c0-.88-0.4-1.61-2.14-2.95-1.6-1.19-3.1-2.45-3.1-4.28a4.512,4.512,0,0,1,1.82-3.4,7.267,7.267,0,0,1,3.98-1.72Zm10.97,0c1.6,0,2.79,1.12,2.79,2.04a1.8,1.8,0,0,1-.9,1.5,0.535,0.535,0,0,1-.75-0.06l-0.01-.01h0l-0.05-.07a3.383,3.383,0,0,0-2.75-1.62,1.9,1.9,0,0,0-1.89,1.89h0c0,1.24,1.01,2.14,2.31,3.05,2.13,1.55,3,2.6,3,4.17,0,2.71-3.46,5.34-6.43,5.34-1.67,0-3.63-1.34-3.63-2.56a1.765,1.765,0,0,1,1.01-1.51,0.677,0.677,0,0,1,.98.1,4.369,4.369,0,0,0,3.39,2.14,2.122,2.122,0,0,0,2.29-1.96,0.085,0.085,0,0,0,0-.07h0c0-.88-0.38-1.61-2.13-2.95-1.61-1.19-3.11-2.45-3.11-4.28a4.565,4.565,0,0,1,1.81-3.4,7.328,7.328,0,0,1,3.99-1.72Zm29.24,10.18a35.541,35.541,0,0,1-2.8,5.37,26.1,26.1,0,0,1-6.15.83,9.47,9.47,0,0,1-10.25-8.66,9.021,9.021,0,0,1-.02-1.47c0-8.34,6.46-13.71,14.6-13.71a17.518,17.518,0,0,1,6.08,1.13c-0.11,1.83-.14,3.82-0.28,5.5l-1.18.1c-0.18-4.2-1.96-5.36-5.46-5.36-6.08,0-10.27,5.75-10.27,12.24,0,5.05,2.55,8.9,7.2,8.9,3.45,0,5.45-2.24,7.47-5.43Zm11.17-10.18c2.94,0,4.71,1.97,4.71,5.58a11.316,11.316,0,0,1-3.77,8.49,8.833,8.833,0,0,1-5.49,2.2c-3.36,0-4.71-2.66-4.71-5.53a10.713,10.713,0,0,1,5.3-9.58,9.01,9.01,0,0,1,3.92-1.16h0.04Zm-1.22,1.48a2.771,2.771,0,0,0-1.33.31c-1.42.63-3.67,3.47-3.67,8.73,0,2.59,1.08,4.28,2.97,4.28a2.841,2.841,0,0,0,1.15-.26c1.86-.8,3.77-4.44,3.77-8.9,0-2.85-1.22-4.13-2.84-4.13Zm32.56,11.36a9.785,9.785,0,0,1-5.1,3.43c-0.91,0-1.22-1.05-.63-3.56l1.96-8.23c0.35-1.58.18-2.14-.38-2.14-1.68,0-5.91,4.94-7.11,7.22-0.45,1.68-.98,4.06-1.42,6.1a13.163,13.163,0,0,0-2.62.63l-0.21-.26c0.88-3.56,1.78-7.18,2.52-10.69,0.5-2.28.45-3.05-.28-3.05-1.75,0-6,5.05-7.11,7.26-0.45,1.58-1.01,3.96-1.42,6.06a14.287,14.287,0,0,0-2.58.63l-0.28-.25c1.08-4,2.06-7.96,2.93-11.93,0.28-1.29.18-1.42-.03-1.46a8.043,8.043,0,0,0-2.44,1.81l-0.49-.97a9.653,9.653,0,0,1,5.06-3.48c0.94,0,1.08,1.3.35,4.28l-0.59,2.46h0.06a21.183,21.183,0,0,1,6.19-5.96,4.276,4.276,0,0,1,2.26-.76c1.02,0,1.93.91,0.95,5.3l-0.34,1.43h0.08a20.23,20.23,0,0,1,6.36-5.96,4.443,4.443,0,0,1,2.2-.71c0.77,0,1.95.43,0.83,5.08l-1.75,7.37c-0.2.84-.14,1.09,0.08,1.09a6.282,6.282,0,0,0,2.44-1.66Zm7.93-12.37a13.3,13.3,0,0,1,3.26-.47c3.66,0,5.12,1.76,5.12,4.99a11.193,11.193,0,0,1-2.99,7.22,13.713,13.713,0,0,1-6.57,4.07,6.221,6.221,0,0,1-2.13-.35l-0.93,4.76c-0.39,1.86-.21,2.18,1.53,2.35l0.87,0.07-0.14,1.06-8.17.41,0.17-1.05c2.1-.38,2.55-0.71,3-2.7,1.29-6.06,2.62-12.12,3.91-18.09a14.7,14.7,0,0,0-2.89,1.3l-0.25-1.05a19.453,19.453,0,0,1,3.41-1.79l0.42-1.61a12.323,12.323,0,0,1,2.59-2.08l0.35,0.25Zm1.75,1.19a11.249,11.249,0,0,0-2.09.24l-2.38,11.54a3.131,3.131,0,0,0,2.2,1.15c2.48,0,5.87-4.62,5.87-9.07,0-3.09-1.64-3.86-3.55-3.86h-0.05Zm40.3,11.18a9.337,9.337,0,0,1-5.07,3.43c-0.9,0-1.25-.94-0.63-3.65,0.67-2.59,1.29-5.22,1.88-7.77,0.51-2.01.32-2.49-.24-2.49-1.55,0-5.59,4.24-7.34,7.19-0.46,1.75-1,3.89-1.42,6.03a13.709,13.709,0,0,0-2.58.71l-0.26-.28c0.99-3.76,2.04-8.06,2.9-11.89,0.26-1.08.14-1.37-.06-1.37a6.559,6.559,0,0,0-2.31,1.66l-0.53-1.02a9.9,9.9,0,0,1,5.07-3.37c0.84,0,1.01,1.19.31,4.07l-0.62,2.66h0.07a22.038,22.038,0,0,1,6.28-5.89,5.03,5.03,0,0,1,2.45-.84c0.87,0,1.92.53,0.87,4.99-0.56,2.38-1.15,4.84-1.75,7.3-0.25.97-.18,1.25,0.07,1.25a5.562,5.562,0,0,0,2.34-1.69Zm8.24,0.19c1.5-2.26,4.72-6.98,4.68-9.47a3.945,3.945,0,0,0-.38-1.65,1.418,1.418,0,0,1,0-.91,1.9,1.9,0,0,1,1.57-1.02c0.85,0,1.47.81,1.47,1.97a8.025,8.025,0,0,1-1.29,3.82q-2.94,5.07-6.36,9.82a80.613,80.613,0,0,1-6.25,8.14l-3.77.98-0.32-.91a30.643,30.643,0,0,0,8.25-7.68,103.859,103.859,0,0,0-1.08-11.41c-0.26-1.71-.46-2.06-0.77-2.06a6.272,6.272,0,0,0-2.03,2.1l-0.71-.91c1.16-1.79,2.9-3.82,4.26-3.82,1.01,0,1.53,1.29,1.85,4.07s0.59,5.92.81,8.97Zm-250.85-5.59a6.551,6.551,0,0,1-3.74,2.47c-0.66,0-.84-0.75-0.46-2.44l1.37-5.91c0.3-1.32.25-1.79-.23-1.79-1.11,0-4.13,2.91-5.35,4.94-0.25,1.15-.71,3.4-0.97,4.69-0.58.13-1.29,0.31-1.85,0.48l-0.2-.17c0.94-4.28,2.31-10.69,3.22-15.43a35.4,35.4,0,0,0-4.36-.24h-1.89l-2.52,12.21c-0.45,2.25-.25,2.4,2.13,2.58l-0.2.79h-7.1l0.2-.79c2.13-.18,2.34-0.33,2.84-2.58l2.66-12.19h-1.87c-2.13,0-2.71.22-3.18,0.74a9.4,9.4,0,0,0-1.26,2.25h-0.89c0.46-1.53.91-3.19,1.22-4.63h0.58a0.943,0.943,0,0,0,1.16.63h10.24c1.92,0,2.34-.08,2.56-0.41l0.1-.53a6.78,6.78,0,0,1,1.81-.61c0.24,0,.27.22,0.12,0.92-0.75,3.43-1.42,6.75-2.23,10.33h0.05a15.851,15.851,0,0,1,4.77-4.12,3.431,3.431,0,0,1,1.68-.53c0.71,0,1.37.45,0.81,2.85l-1.43,6.02c-0.17.79-.12,0.97,0.05,0.97a4.417,4.417,0,0,0,1.8-1.21Zm9.2-.46a7.424,7.424,0,0,1-5.45,2.92c-1.22,0-2.84-.71-2.84-3.74a8.483,8.483,0,0,1,3.06-6.62,6.363,6.363,0,0,1,3.55-1.43,2.195,2.195,0,0,1,2.33,2.06v0.03c0,2.62-4.36,3.94-6.85,4.56q-0.015.375,0,.75c0,1.38.43,2.78,1.98,2.78a6.081,6.081,0,0,0,3.79-1.99Zm-2.61-7.77a2.238,2.238,0,0,0-1.07.3,5.782,5.782,0,0,0-2.38,4.36c3.67-.95,4.77-2.14,4.77-3.28a1.229,1.229,0,0,0-1.08-1.37h0a0.739,0.739,0,0,0-.21,0Zm262.06,4.4a3.6,3.6,0,1,1-3.6-3.61h0a3.564,3.564,0,0,1,3.59,3.51A0.34,0.34,0,0,1,4070.12,9702.65Zm-6.62,0a3.041,3.041,0,1,0,0-.12v0.12Zm2.24,2.08h-0.5v-4.17h1.59a1.172,1.172,0,1,1,.33,2.32l1.24,1.85h-0.6l-1.17-1.85h-0.89v1.85Zm0.67-2.29c0.63,0,1.25,0,1.25-.71a0.782,0.782,0,0,0-.98-0.71h-0.94v1.42h0.67Zm-212.76,8.39a7.9,7.9,0,0,1-4.67,2.28c-2.13,0-2.73-1.94-2.73-3.82a9.37,9.37,0,0,1,0-1.06c3.43-.84,9.43-2.67,9.43-6.27a3.027,3.027,0,0,0-3.13-2.92h-0.08a8.73,8.73,0,0,0-4.92,2,11.729,11.729,0,0,0-4.27,9.12c0,4.21,2.27,5.15,3.95,5.15a9.944,9.944,0,0,0,7-3.51Zm-3.9-9.82a2.981,2.981,0,0,1,1.46-.42h0.04a1.693,1.693,0,0,1,1.79,1.6,1.405,1.405,0,0,1,0,.29c0,1.61-1.5,3.23-6.56,4.52A7.912,7.912,0,0,1,3849.75,9701.01Zm12.75,9.87a7.11,7.11,0,0,1-2.55,1.74c-0.21,0-.35-0.21-0.14-1.3,1.47-6.8,2.68-12.71,4.08-19.37,0.18-.77.14-1.09-0.21-1.09a34.976,34.976,0,0,1-5.25,1.19l-0.14,1.02h0.91c1.65,0.04,1.85.25,1.5,1.71-1.19,5.71-2.23,10.5-3.42,16.22-0.76,3.51-.14,4.27.56,4.27a9.951,9.951,0,0,0,5.25-3.56Zm8.7,0a7.288,7.288,0,0,1-2.55,1.74c-0.22,0-.35-0.21-0.15-1.3,1.47-6.8,2.69-12.71,4.09-19.37,0.17-.77.14-1.09-0.21-1.09a34.976,34.976,0,0,1-5.25,1.19l-0.14,1.02h0.91c1.64,0.04,1.85.25,1.5,1.71-1.19,5.71-2.23,10.5-3.42,16.22-0.76,3.51-.14,4.27.56,4.27a9.951,9.951,0,0,0,5.25-3.56Zm154.84-.01a7.929,7.929,0,0,1-2.39,1.67c-0.21,0-.28-0.31-0.07-1.57,0.77-4.35,1.81-9.08,2.41-11.29l-0.14-.13a7.112,7.112,0,0,1-1.37-.22,9.858,9.858,0,0,0-2.23-.27h0a11.253,11.253,0,0,0-6.5,2.66,13.174,13.174,0,0,0-4.26,9.57c0,2.85,1.16,4.03,2.13,4.03a5.758,5.758,0,0,0,3.31-1.54,25.2,25.2,0,0,0,4.44-4.73h0.07l-0.63,3.12c-0.5,2.6-.07,3.15.67,3.15a9.738,9.738,0,0,0,5.18-3.56Zm-4.1-4.74c-1.05,2.31-5.1,6.83-6.53,6.83-0.5,0-.95-0.71-0.95-2.24a12.311,12.311,0,0,1,3.77-9.27,4.5,4.5,0,0,1,2.52-.71h0.03a5.774,5.774,0,0,1,2.28.5C4022.85,9702.27,4022.42,9704.65,4021.94,9706.13Zm-120.73,4.7a7.931,7.931,0,0,1-4.67,2.28c-2.13,0-2.73-1.94-2.73-3.82a9.3,9.3,0,0,1,.04-1.06c3.42-.84,9.43-2.67,9.43-6.27a3.043,3.043,0,0,0-3.14-2.92h-0.08a8.73,8.73,0,0,0-4.92,2,11.722,11.722,0,0,0-4.23,9.12c0,4.21,2.27,5.15,3.95,5.15a9.944,9.944,0,0,0,7-3.51Zm-4.05-9.82a3.043,3.043,0,0,1,1.46-.42h0.04a1.693,1.693,0,0,1,1.79,1.6,1.405,1.405,0,0,1,0,.29c0,1.61-1.5,3.23-6.57,4.52A7.953,7.953,0,0,1,3897.16,9701.01Zm-42.96-69.44-0.4,1.83c-6.39.48-7.37,1.02-8.78,9.62l-4.97,28.8c-1.42,8.55-2.03,9.14,4.55,9.61l-0.4,1.83h-20.52l0.41-1.83c6.39-.47,8.19-1.03,9.69-9.61l5.77-31.98h-0.32l-26.73,42.55h-1.91l-9.56-41.51h-0.16l-4.91,21.29a128.6,128.6,0,0,0-2.85,14.71c-0.31,3.18,1.67,4.22,6.82,4.53l-0.32,1.84h-18.87l0.31-1.92c4.36-.07,6.4-1.25,7.53-4.21q2.475-7.38,4.21-14.97l4.66-19.17c2.07-8.43.8-9.08-5.78-9.62l0.39-1.84h12.61l10.19,41.51,26.28-41.51Zm56.71,19.57a14.81,14.81,0,0,1,5.48.86,63.822,63.822,0,0,1-3.09,13.29,42.521,42.521,0,0,1-6.1,7.84c-3.09,3.33-6.39,5.7-7.61,5.7-1.5,0-2.13-2.14-2.13-5.24a34.294,34.294,0,0,1,2.84-13.13,17.031,17.031,0,0,1,7.2-8.56A7.755,7.755,0,0,1,3910.91,9651.14Zm0.26,28.38c-0.81,3.82.71,4.69,1.65,4.69a34.244,34.244,0,0,0,11.73-7.55l-0.85-1.59a27.175,27.175,0,0,1-5.95,3.82c-0.71,0-.55-1.12-0.15-3.57,1.5-9.06,3.5-18.05,5.22-26.16l-0.39-.32a14.724,14.724,0,0,1-3.09-.48,22.791,22.791,0,0,0-4.2-.55,26.1,26.1,0,0,0-15.44,6.68,30.356,30.356,0,0,0-8.75,21.3c0,6.83,2.85,8.43,4.6,8.43a20.921,20.921,0,0,0,6.65-3.74,71.776,71.776,0,0,0,10.84-11.13h0.16Zm141.79-28.38a14.706,14.706,0,0,1,5.46.86,62.438,62.438,0,0,1-3.09,13.29,41.361,41.361,0,0,1-6.1,7.84c-3.09,3.33-6.39,5.7-7.59,5.7-1.51,0-2.14-2.14-2.14-5.24a34.532,34.532,0,0,1,2.85-13.13,16.912,16.912,0,0,1,7.21-8.56A7.966,7.966,0,0,1,4052.96,9651.14Zm0.23,28.38c-0.78,3.82.71,4.69,1.67,4.69a34.244,34.244,0,0,0,11.73-7.55l-0.85-1.59a27.483,27.483,0,0,1-5.94,3.82c-0.71,0-.55-1.12-0.16-3.57,1.5-9.06,3.5-18.05,5.23-26.16l-0.39-.32a14.624,14.624,0,0,1-3.09-.48,22.9,22.9,0,0,0-4.2-.55,26.183,26.183,0,0,0-15.46,6.68,30.322,30.322,0,0,0-8.71,21.32c0,6.84,2.84,8.43,4.6,8.43a21.087,21.087,0,0,0,6.65-3.73,72.292,72.292,0,0,0,10.82-11.16h0.15Zm-23.87-31.74a21.119,21.119,0,0,0-13.49,5.71,28.373,28.373,0,0,0-8.41,19.64c0,7,3.18,11.05,8,11.05a25.863,25.863,0,0,0,14.81-7.35l-1.02-1.83a16.787,16.787,0,0,1-9.81,4.66c-4.05,0-5.55-3.57-5.55-8.28a30.806,30.806,0,0,1,3.96-15.27c1.82-3.01,3.88-4.76,6.18-4.76a7.039,7.039,0,0,1,5.53,3.21c0.79,1.11,1.82.8,2.84,0.08a4.3,4.3,0,0,0,2.13-3.26C4034.55,9649.7,4032.17,9647.78,4029.32,9647.78Zm-24.57,27.29a20.807,20.807,0,0,1-5.93,3.56c-0.71,0-.48-0.87.07-3.34l6.03-27.52h-0.8l-5.23,2.14a97.139,97.139,0,0,1-2.75,12.04c-1.81,4.21-11.88,17.25-16.01,17.25-2.06,0-1.82-2.54-.78-7.31l4.17-18.99c0.71-3.1.64-5.09-1.5-5.09-1.59,0-6.32,3.11-10.46,7.03l0.9,1.63a12.911,12.911,0,0,1,4.72-2.85c0.71,0,.41,1.42-0.31,4.45l-3.73,16.63c-1.9,8.42,1.19,9.52,2.13,9.52a13.485,13.485,0,0,0,6.5-2.7,58.089,58.089,0,0,0,12.99-13.65H3995l-2.21,10.13c-0.94,4.21-.48,6.21,1.27,6.21a35.057,35.057,0,0,0,11.64-7.56ZM3869.9,9675a16.526,16.526,0,0,1-10.34,4.75c-5.15,0-6.02-5.4-6.02-9.55a17.87,17.87,0,0,1,.26-1.91c7.59-2.22,20.98-7.31,20.98-14.54a6.145,6.145,0,0,0-6.3-5.99h-0.36a21.856,21.856,0,0,0-11.65,4.87,26.149,26.149,0,0,0-9.18,19.96c0,9.38,5.15,11.61,8.15,11.61,2.5,0,8.3-.83,15.47-7.35Zm-8.04-23.23a5.98,5.98,0,0,1,2.78-.71,3.728,3.728,0,0,1,3.95,3.5,2.669,2.669,0,0,1,0,.4c0,4.27-3.41,7.72-14.42,10.97C3855.61,9657.1,3859.41,9653.12,3861.86,9651.77Zm102.52,23.28a16.609,16.609,0,0,1-10.31,4.71c-5.14,0-6.02-5.4-6.02-9.54a17.506,17.506,0,0,1,.25-1.91c7.6-2.23,20.99-7.32,20.99-14.54a6.157,6.157,0,0,0-6.28-6.01h-0.38a21.87,21.87,0,0,0-11.64,4.87,26.076,26.076,0,0,0-9.19,19.96c0,9.39,5.15,11.61,8.16,11.61,2.5,0,8.27-.82,15.44-7.32Zm-8.01-23.28a5.94,5.94,0,0,1,2.77-.71,3.766,3.766,0,0,1,3.96,3.56h0a2.164,2.164,0,0,1,0,.36c0,4.28-3.41,7.73-14.42,10.98C3950.12,9657.1,3953.92,9653.12,3956.37,9651.77Zm-67.82,24.66c-3.71,4.51-9.02,7.84-11.37,7.84-1.42,0-2.75-1.67-1.16-8.98,2.48-11.9,5.52-26.47,8-38.3,0.71-3.06.29-3.51-3.14-3.56h-1.89l0.3-1.79a40.3,40.3,0,0,0,10.9-2.8c0.71,0,.8.65,0.44,2.25-2.91,13.88-6.32,30.71-9.37,44.91-0.44,2.26-.15,2.7.29,2.7a15.928,15.928,0,0,0,5.82-4.08Zm51.4,0c-3.7,4.51-9.02,7.84-11.36,7.84-1.46,0-2.76-1.67-1.17-8.98,2.48-11.9,5.52-26.47,8-38.3,0.71-3.06.29-3.51-3.13-3.56h-1.89l0.29-1.79a40.373,40.373,0,0,0,10.91-2.8c0.71,0,.8.65,0.43,2.25-2.9,13.88-6.32,30.71-9.36,44.91-0.44,2.26-.15,2.7.29,2.7a15.809,15.809,0,0,0,5.81-4.08Zm-181.21-39.12a1.782,1.782,0,0,1-.63-2.41,20.82,20.82,0,0,0,1.25-22.29l-0.21-.34a2.862,2.862,0,0,0-1.02,2.02,30.334,30.334,0,0,0,1.42,2.71c3.2,5.92-.38,17.15-4.26,18.27-10.14,2.91-23.14,7.52-29.24,20.37h0a0.063,0.063,0,0,0,.05.06h0.05c8.71-11.2,24.86-14.97,26.19-15.3,0.71-.17-1.04,1.95-1.47,2.53a11.436,11.436,0,0,1-3.75,2.05c-3.44,1.43-18.74,8.39-23.91,20.93h0a0.056,0.056,0,0,0,.06.05h0.04a52.589,52.589,0,0,1,23.43-16.18c0.29-.11.34,0.04,0.32,0.22-0.06.77-1.18,2.85-4.97,5.13-6.99,4.19-17.92,11.57-20.1,21.76h0a0.086,0.086,0,0,0,.06.07h0.05c2.45-5.12,9.4-12.28,18.99-16.46a0.153,0.153,0,0,1,.22.06,0.148,0.148,0,0,1,0,.13,11.13,11.13,0,0,1-2.98,5.12c-3.04,2.85-14.63,9.36-15.52,21.2h0a0.056,0.056,0,0,0,.06.05,0.054,0.054,0,0,0,.05-0.05h0c2.77-8.4,12.7-15.03,14.63-15.73,0.24-.09.24,0.09,0.24,0.19a7.781,7.781,0,0,1-2.3,5.89c-2.2,1.71-9.62,6.85-10.07,15.75h0a0.085,0.085,0,0,0,.07,0h0.05c1.42-6.23,8.48-10.47,10.02-10.98,0.12,0,.22,0,0.25.25a4.869,4.869,0,0,1-1.83,4.03,14.108,14.108,0,0,0-5.82,12.83h0a0.045,0.045,0,0,0,.05,0,0.064,0.064,0,0,0,.06,0h0a11.391,11.391,0,0,1,6.39-9.74c0.43-.14.5,0,0.5,0.64a6.4,6.4,0,0,1-1.31,3.83,13.95,13.95,0,0,0-2.25,11.29h0.05a0.075,0.075,0,0,0,.07-0.05h0c-0.05-4.81,1.84-7.59,3.28-8.31,0.28-.13.38-0.1,0.52,0.47a4.635,4.635,0,0,1-.35,3.35,13.457,13.457,0,0,0,6.25,15.1h0a0.067,0.067,0,0,0,.07-0.05h0a0.045,0.045,0,0,0,0-.05h0a15.021,15.021,0,0,1-4.35-11.23c0.16-1.2.5-2.68,1.38-2.1a9.315,9.315,0,0,1,2,6.32h0a0.09,0.09,0,0,0,.06.06,0.1,0.1,0,0,0,.05-0.04h0a11.48,11.48,0,0,0-2.58-12.21,7.6,7.6,0,0,1-.71-4.35c0.15-.81.57-1.15,1.1-0.81a9.876,9.876,0,0,1,3.86,7.85h0a0.089,0.089,0,0,0,.11.05h0c1.11-3.89.89-7.84-3.65-12.52-1.42-1.32-.58-5.41-0.33-6.35a0.6,0.6,0,0,1,.69-0.46c0.01,0,.02,0,0.02.01h0a0.568,0.568,0,0,1,.34.2s6.85,6.66,5.18,13.65h0a0.071,0.071,0,0,0,.05.07h0.05c2.13-2.8,2.35-8.75-1.02-14.26-2.05-3.34-3.89-5.07-3.84-6.27a10.418,10.418,0,0,1,.81-3.61,0.71,0.71,0,0,1,.91-0.3l0.07,0.05c1.24,0.85,9.43,8.14,7.11,17.33h0a0.075,0.075,0,0,0,.05.07h0c4.69-6.63,2.03-15.49-5.01-22.49-1-1,0-4.4.93-5.49a0.473,0.473,0,0,1,.66-0.07h0c4.88,2.85,11.36,13.55,8.84,20.62h0a0.067,0.067,0,0,0,.07.06h0.03c5.57-7.22.71-18.95-5.44-26.89-0.71-1.38.9-3.29,1.05-3.56,0.34-.43.5-0.39,0.75-0.21,8.78,6.8,11.23,18.63,8.46,24.95h0a0.063,0.063,0,0,0,.05.06h0.05c6.54-8,4.12-20.68-5.06-30.43-0.6-.71-0.33-1.42.3-2.37a0.548,0.548,0,0,1,.71-0.24,1.431,1.431,0,0,1,.15.11c13.48,9.55,12.11,19.35,9.77,25.62h0a0.074,0.074,0,0,0,.06.06h0m0.03,0h0c4.33-5.03,8.87-18.69-6.51-29.29Zm-2.53,33.24a17.472,17.472,0,0,1-3.66-13.54h0a0.056,0.056,0,0,0-.06-0.05h-0.04c-2.84,3.38-12.07,13.1-11.06,22.56,0,0.11.11,0.83,0.12,0.83a9.145,9.145,0,0,0,18.16-1.72A12.286,12.286,0,0,0,3762.72,9699.84Z" transform="translate(-3722 -9612.28)"/>
</svg>
