<?xml version="1.0" encoding="utf-8"?>
<!-- Generator: Adobe Illustrator 25.0.0, SVG Export Plug-In . SVG Version: 6.00 Build 0)  -->
<svg version="1.1" id="圖層_1" xmlns="http://www.w3.org/2000/svg" xmlns:xlink="http://www.w3.org/1999/xlink" x="0px" y="0px"
	 viewBox="0 0 696.2 222.9" style="enable-background:new 0 0 696.2 222.9;" xml:space="preserve">
<style type="text/css">
	.st0{fill-rule:evenodd;clip-rule:evenodd;fill:#FFFFFF;}
</style>
<path id="形狀_3" class="st0" d="M253.6,161.8c-4.5,0.6-5,0.8-7.9,6.5s-8.8,18.1-17.8,37.6h-2.5l-5.5-34.6h-0.3L203,205.8h-2.5
	l-4.2-37.6c-0.6-5.6-0.9-5.9-5.7-6.4l0.5-2.2h16.1l-0.5,2.2l-1.7,0.3c-2.9,0.4-3.4,0.7-2.9,4.4l3,29h0.1l16.4-35.2h2.3l5.7,35.2h0.2
	c4.3-9.3,10.1-21.5,12.9-28.9c1.4-3.6,1-4.2-2.7-4.6l-1.7-0.3l0.5-2.2h15.4L253.6,161.8z M334.7,199.2c-2.5,3.3-6.1,5.8-10.1,6.9
	c-1.8,0-2.5-1.9-1.3-7.3c1.3-5.2,2.6-10.4,3.8-15.5c1-4,0.6-5-0.5-5c-3.1,0-11.2,8.5-14.7,14.4c-0.9,3.5-2,7.8-2.8,12.1
	c-1.8,0.3-3.5,0.8-5.2,1.4l-0.5-0.6c2-7.5,4-16.1,5.8-23.8c0.5-2.2,0.3-2.7-0.1-2.7c-1.8,0.8-3.3,1.9-4.6,3.3l-1-2
	c2.6-3.3,6.1-5.6,10.1-6.7c1.7,0,2,2.4,0.6,8.1l-1.3,5.3h0.1c3.4-4.7,7.7-8.7,12.6-11.8c1.5-1,3.1-1.6,4.9-1.7c1.8,0,3.8,1.1,1.8,10
	c-1.1,4.8-2.3,9.7-3.5,14.6c-0.5,1.9-0.4,2.5,0.1,2.5c1.8-0.7,3.4-1.9,4.7-3.4L334.7,199.2z M378.8,173.5c3.2,0,5.6,2.2,5.6,4.1
	c-0.1,1.2-0.7,2.4-1.8,3c-0.4,0.4-1.1,0.3-1.5-0.1c0,0,0,0,0,0l0,0l-0.1-0.1c-1.2-1.9-3.2-3.1-5.5-3.2c-2.1,0-3.8,1.7-3.8,3.8l0,0
	c0,2.5,2,4.3,4.6,6.1c4.3,3.1,6,5.2,6,8.3c0,5.4-6.9,10.7-12.9,10.7c-3.4,0-7.3-2.7-7.3-5.1c0.1-1.3,0.8-2.5,2-3
	c0.6-0.5,1.4-0.4,1.9,0.2c0,0,0,0,0,0c1.4,2.4,4,4,6.8,4.3c2.4,0.2,4.5-1.7,4.6-4.1v0l0,0c0-1.8-0.8-3.2-4.3-5.9
	c-3.2-2.4-6.2-4.9-6.2-8.6c0.1-2.7,1.5-5.2,3.6-6.8c2.2-1.9,5-3.1,8-3.4L378.8,173.5z M400.7,173.5c3.2,0,5.6,2.2,5.6,4.1
	c0,1.2-0.7,2.4-1.8,3c-0.4,0.4-1.1,0.3-1.5-0.1l0,0l0,0l-0.1-0.1c-1.2-1.9-3.2-3.1-5.5-3.2c-2.1,0-3.8,1.7-3.8,3.8l0,0
	c0,2.5,2,4.3,4.6,6.1c4.3,3.1,6,5.2,6,8.3c0,5.4-6.9,10.7-12.9,10.7c-3.3,0-7.3-2.7-7.3-5.1c0.1-1.3,0.8-2.5,2-3
	c0.6-0.5,1.4-0.4,1.9,0.1c0,0,0,0,0.1,0.1c1.4,2.4,4,4,6.8,4.3c2.3,0.2,4.4-1.5,4.6-3.9c0,0,0,0,0,0c0,0,0-0.1,0-0.1l0,0
	c0-1.8-0.8-3.2-4.3-5.9c-3.2-2.4-6.2-4.9-6.2-8.6c0.1-2.7,1.5-5.2,3.6-6.8c2.3-1.9,5-3.1,8-3.4L400.7,173.5z M459.2,193.9
	c-1.6,3.7-3.4,7.3-5.6,10.7c-4,1-8.1,1.6-12.3,1.7c-10.4,0.9-19.6-6.8-20.5-17.2c0,0,0,0,0-0.1c-0.1-1-0.1-2,0-2.9
	c0-16.7,12.9-27.4,29.2-27.4c4.2,0,8.3,0.8,12.2,2.3c-0.2,3.7-0.3,7.6-0.6,11l-2.4,0.2c-0.4-8.4-3.9-10.7-10.9-10.7
	c-12.2,0-20.5,11.5-20.5,24.5c0,10.1,5.1,17.8,14.4,17.8c6.9,0,10.9-4.5,14.9-10.9L459.2,193.9z M481.5,173.5
	c5.9,0,9.4,3.9,9.4,11.2c0,6.5-2.7,12.7-7.5,17c-3,2.7-6.9,4.2-11,4.4c-6.7,0-9.4-5.3-9.4-11.1c-0.2-7.8,3.8-15.2,10.6-19.2
	C476,174.5,478.7,173.7,481.5,173.5L481.5,173.5z M479.1,176.5c-0.9,0-1.8,0.2-2.7,0.6c-2.8,1.3-7.3,6.9-7.3,17.5
	c0,5.2,2.2,8.6,5.9,8.6c0.8,0,1.6-0.2,2.3-0.5c3.7-1.6,7.5-8.9,7.5-17.8C484.9,179.1,482.4,176.5,479.1,176.5L479.1,176.5z
	 M544.2,199.2c-2.6,3.3-6.2,5.7-10.2,6.9c-1.8,0-2.4-2.1-1.3-7.1l3.9-16.5c0.7-3.2,0.4-4.3-0.8-4.3c-3.4,0-11.8,9.9-14.2,14.4
	c-0.9,3.4-2,8.1-2.8,12.2c-1.8,0.2-3.5,0.7-5.2,1.3l-0.4-0.5c1.8-7.1,3.6-14.4,5-21.4c1-4.6,0.9-6.1-0.6-6.1
	c-3.5,0-12,10.1-14.2,14.5c-0.9,3.2-2,7.9-2.8,12.1c-1.8,0.3-3.5,0.7-5.2,1.3l-0.6-0.5c2.2-8,4.1-15.9,5.9-23.9
	c0.6-2.6,0.4-2.8-0.1-2.9c-1.8,0.9-3.5,2.1-4.9,3.6l-1-1.9c2.5-3.4,6.1-5.8,10.1-7c1.9,0,2.2,2.6,0.7,8.6l-1.2,4.9h0.1
	c3.3-4.8,7.5-8.8,12.4-11.9c1.3-0.9,2.9-1.5,4.5-1.5c2,0,3.9,1.8,1.9,10.6l-0.7,2.9h0.2c3.3-4.8,7.7-8.9,12.7-11.9
	c1.3-0.9,2.8-1.3,4.4-1.4c1.5,0,3.9,0.9,1.7,10.2l-3.5,14.7c-0.4,1.7-0.3,2.2,0.2,2.2c1.9-0.7,3.5-1.8,4.9-3.3L544.2,199.2z
	 M560.1,174.5c2.1-0.6,4.3-0.9,6.5-0.9c7.3,0,10.2,3.5,10.2,10c-0.2,5.4-2.3,10.5-6,14.4c-3.5,3.9-8.1,6.7-13.1,8.1
	c-1.4,0-2.9-0.2-4.3-0.7l-1.9,9.5c-0.8,3.7-0.4,4.4,3.1,4.7l1.7,0.1l-0.3,2.1l-16.3,0.8l0.3-2.1c4.2-0.8,5.1-1.4,6-5.4
	c2.6-12.1,5.2-24.2,7.8-36.2c-2,0.7-4,1.5-5.8,2.6l-0.5-2.1c2.1-1.4,4.4-2.6,6.8-3.6l0.8-3.2c1.5-1.6,3.3-3,5.2-4.2l0.7,0.5
	L560.1,174.5z M563.6,176.8c-1.4,0-2.8,0.2-4.2,0.5l-4.8,23.1c1.1,1.3,2.7,2.2,4.4,2.3c5,0,11.7-9.2,11.7-18.1
	c0-6.2-3.3-7.7-7.1-7.7H563.6z M644.2,199.2c-2.5,3.4-6.1,5.8-10.1,6.9c-1.8,0-2.5-1.9-1.3-7.3c1.3-5.2,2.6-10.4,3.8-15.5
	c1-4,0.6-5-0.5-5c-3.1,0-11.2,8.5-14.7,14.4c-0.9,3.5-2,7.8-2.8,12.1c-1.8,0.3-3.5,0.8-5.2,1.4l-0.5-0.6c2-7.5,4.1-16.1,5.8-23.8
	c0.5-2.2,0.3-2.7-0.1-2.7c-1.8,0.8-3.3,1.9-4.6,3.3l-1.1-2c2.6-3.3,6.1-5.6,10.1-6.7c1.7,0,2,2.4,0.6,8.1l-1.2,5.3h0.1
	c3.4-4.7,7.6-8.7,12.6-11.8c1.5-1,3.1-1.6,4.9-1.7c1.7,0,3.8,1.1,1.7,10c-1.1,4.8-2.3,9.7-3.5,14.6c-0.5,1.9-0.4,2.5,0.1,2.5
	c1.8-0.7,3.4-1.9,4.7-3.4L644.2,199.2z M660.6,199.6c3-4.5,9.4-14,9.4-18.9c0-1.1-0.3-2.3-0.8-3.3c-0.2-0.6-0.2-1.2,0-1.8
	c0.6-1.2,1.8-2,3.1-2c1.7,0,2.9,1.6,2.9,3.9c-0.2,2.7-1.1,5.4-2.6,7.6c-3.9,6.8-8.2,13.3-12.7,19.6c-3.8,5.7-8,11.1-12.5,16.3
	l-7.5,2l-0.6-1.8c6.4-4.1,12-9.3,16.5-15.4c-0.3-7.6-1-15.3-2.2-22.8c-0.5-3.4-0.9-4.1-1.5-4.1c-1.7,1.1-3.1,2.5-4.1,4.2l-1.4-1.8
	c2.3-3.6,5.8-7.6,8.5-7.6c2,0,3.1,2.6,3.7,8.1s1.2,11.8,1.6,17.9L660.6,199.6z M158.9,188.4c-1.8,2.5-4.5,4.2-7.5,4.9
	c-1.3,0-1.7-1.5-0.9-4.9l2.7-11.8c0.6-2.6,0.5-3.6-0.5-3.6c-2.2,0-8.3,5.8-10.7,9.9c-0.5,2.3-1.4,6.8-1.9,9.4
	c-1.2,0.3-2.6,0.6-3.7,1l-0.4-0.3c1.9-8.6,4.6-21.4,6.4-30.9c-2.9-0.3-5.8-0.5-8.7-0.5H130l-5,24.4c-0.9,4.5-0.5,4.8,4.3,5.2
	l-0.4,1.6h-14.2l0.4-1.6c4.3-0.4,4.7-0.7,5.7-5.2l5.3-24.4h-3.7c-4.3,0-5.4,0.4-6.4,1.5c-1,1.4-1.9,2.9-2.5,4.5h-1.8
	c0.9-3.1,1.8-6.4,2.4-9.3h1.2c0.3,1,1.3,1.5,2.3,1.3H138c3.8,0,4.7-0.2,5.1-0.8l0.2-1.1c1.1-0.6,2.4-1,3.6-1.2
	c0.5,0,0.5,0.4,0.2,1.8c-1.5,6.9-2.8,13.5-4.5,20.7h0.1c2.6-3.4,5.8-6.2,9.5-8.2c1-0.6,2.2-1,3.4-1.1c1.4,0,2.7,0.9,1.6,5.7l-2.9,12
	c-0.3,1.6-0.2,1.9,0.1,1.9c1.4-0.5,2.6-1.3,3.6-2.4L158.9,188.4z M177.3,187.5c-2.6,3.4-6.6,5.6-10.9,5.8c-2.4,0-5.7-1.4-5.7-7.5
	c-0.1-5.1,2.2-10,6.1-13.2c2-1.7,4.5-2.7,7.1-2.9c2.4-0.2,4.5,1.7,4.7,4.1c0,0,0,0,0,0v0.1c0,5.2-8.7,7.9-13.7,9.1c0,0.5,0,1,0,1.5
	c0,2.8,0.9,5.6,4,5.6c2.9-0.4,5.6-1.8,7.6-4L177.3,187.5z M172.1,171.9c-0.8,0-1.5,0.2-2.1,0.6c-2.8,2-4.6,5.2-4.8,8.7
	c7.3-1.9,9.5-4.3,9.5-6.6c0.2-1.3-0.8-2.6-2.1-2.7c0,0,0,0,0,0l0,0C172.5,171.9,172.3,171.9,172.1,171.9L172.1,171.9z M696.2,180.7
	c0,4-3.2,7.2-7.2,7.2s-7.2-3.2-7.2-7.2c0-4,3.2-7.2,7.2-7.2l0,0c3.9,0,7.1,3.1,7.2,7C696.2,180.6,696.2,180.7,696.2,180.7
	L696.2,180.7z M683,180.7c0.1,3.4,2.8,6,6.2,6c3.4-0.1,6-2.8,6-6.2s-2.8-6-6.2-6c-3.3,0.1-5.9,2.7-6,6V180.7z M687.5,184.9h-1v-8.3
	h3.2c1.3-0.2,2.5,0.7,2.7,1.9c0.2,1.3-0.7,2.5-1.9,2.7c0,0-0.1,0-0.1,0l2.5,3.7h-1.2l-2.3-3.7h-1.8L687.5,184.9L687.5,184.9z
	 M688.8,180.3c1.3,0,2.5,0,2.5-1.4c-0.1-0.9-0.8-1.5-1.7-1.5c-0.1,0-0.2,0-0.3,0h-1.9v2.8H688.8z M263.3,197.1
	c-2.5,2.5-5.8,4.1-9.3,4.6c-4.3,0-5.5-3.9-5.5-7.6c0-0.7,0-1.4,0-2.1c6.9-1.7,18.9-5.3,18.9-12.5c-0.1-3.3-2.9-6-6.3-5.8h-0.2
	c-3.6,0.3-7.1,1.7-9.8,4c-5.4,4.5-8.6,11.2-8.5,18.2c0,8.4,4.5,10.3,7.9,10.3c5.4-0.3,10.5-2.9,14-7L263.3,197.1z M255.5,177.5
	c0.9-0.5,1.9-0.8,2.9-0.8h0.1c1.9-0.1,3.5,1.3,3.6,3.2c0,0,0,0,0,0c0,0.2,0,0.4,0,0.6c0,3.2-3,6.5-13.1,9
	C249.2,184.7,251.6,180.3,255.5,177.5L255.5,177.5z M281,197.2c-1.4,1.5-3.2,2.7-5.1,3.5c-0.4,0-0.7-0.4-0.3-2.6
	c2.9-13.6,5.4-25.4,8.2-38.7c0.4-1.5,0.3-2.2-0.4-2.2c-3.4,1.1-6.9,1.9-10.5,2.4l-0.3,2h1.8c3.3,0.1,3.7,0.5,3,3.4
	c-2.4,11.4-4.5,21-6.8,32.4c-1.5,7-0.3,8.5,1.1,8.5c4.2-1.2,7.9-3.7,10.5-7.1L281,197.2z M298.4,197.2c-1.4,1.5-3.2,2.7-5.1,3.5
	c-0.4,0-0.7-0.4-0.3-2.6c2.9-13.6,5.4-25.4,8.2-38.7c0.3-1.5,0.3-2.2-0.4-2.2c-3.4,1.1-6.9,1.9-10.5,2.4l-0.3,2h1.8
	c3.3,0.1,3.7,0.5,3,3.4c-2.4,11.4-4.5,21-6.8,32.4c-1.5,7-0.3,8.5,1.1,8.5c4.2-1.2,7.9-3.7,10.5-7.1L298.4,197.2z M608.1,197.2
	c-1.4,1.4-3,2.5-4.8,3.3c-0.4,0-0.6-0.6-0.1-3.1c1.5-8.7,3.6-18.2,4.8-22.6l-0.3-0.3c-0.9-0.1-1.8-0.2-2.7-0.4
	c-1.5-0.3-3-0.5-4.5-0.5l0,0c-4.8,0.3-9.3,2.2-13,5.3c-5.4,4.9-8.4,11.9-8.5,19.1c0,5.7,2.3,8.1,4.3,8.1c2.5-0.3,4.8-1.4,6.6-3.1
	c3.4-2.8,6.3-5.9,8.9-9.5h0.1l-1.3,6.2c-1,5.2-0.1,6.3,1.3,6.3c4.1-1.2,7.8-3.7,10.4-7.1L608.1,197.2z M599.9,187.7
	c-2.1,4.6-10.2,13.7-13.1,13.7c-1,0-1.9-1.4-1.9-4.5c-0.2-7,2.5-13.7,7.5-18.5c1.5-1,3.3-1.5,5-1.4h0.1c1.6,0,3.1,0.4,4.6,1
	C601.7,180,600.8,184.7,599.9,187.7L599.9,187.7z M358.4,197.1c-2.5,2.5-5.8,4.1-9.3,4.6c-4.3,0-5.5-3.9-5.5-7.6
	c0-0.7,0-1.4,0.1-2.1c6.8-1.7,18.9-5.3,18.9-12.5c-0.1-3.3-2.9-5.9-6.3-5.8h-0.2c-3.6,0.3-7.1,1.7-9.8,4c-5.4,4.5-8.5,11.2-8.5,18.2
	c0,8.4,4.5,10.3,7.9,10.3c5.4-0.3,10.5-2.9,14-7L358.4,197.1z M350.3,177.5c0.9-0.5,1.9-0.8,2.9-0.8h0.1c1.9-0.1,3.5,1.3,3.6,3.2
	c0,0,0,0,0,0c0,0.2,0,0.4,0,0.6c0,3.2-3,6.5-13.1,9C344,184.7,346.4,180.3,350.3,177.5L350.3,177.5z M264.4,38.6l-0.8,3.7
	c-12.8,1-14.7,2-17.6,19.2l-9.9,57.6c-2.8,17.1-4.1,18.3,9.1,19.2l-0.8,3.7h-41l0.8-3.7c12.8-0.9,16.4-2.1,19.4-19.2l11.5-64h-0.6
	L181,140.2h-3.8l-19.1-83h-0.3l-9.8,42.6c-2.5,9.7-4.4,19.5-5.7,29.4c-0.6,6.4,3.3,8.4,13.6,9.1l-0.6,3.7h-37.7l0.6-3.8
	c8.7-0.1,12.8-2.5,15.1-8.4c3.3-9.8,6.1-19.8,8.4-29.9l9.3-38.3c4.1-16.9,1.6-18.2-11.6-19.2l0.8-3.7h25.2l20.4,83l52.6-83
	L264.4,38.6z M377.8,77.7c3.7-0.1,7.4,0.5,11,1.7c-1.1,9.1-3.2,18-6.2,26.6c-3.4,5.7-7.5,10.9-12.2,15.7
	c-6.2,6.7-12.8,11.4-15.2,11.4c-3,0-4.3-4.3-4.3-10.5c0.1-9,2.1-18,5.7-26.3c2.7-7.2,7.8-13.2,14.4-17.1
	C373.1,78.2,375.5,77.7,377.8,77.7L377.8,77.7z M378.3,134.5c-1.6,7.6,1.4,9.4,3.3,9.4c8.8-3.4,16.8-8.5,23.5-15.1l-1.7-3.2
	c-3.6,3.1-7.6,5.6-11.9,7.6c-1.4,0-1.1-2.2-0.3-7.1c3-18.1,7-36.1,10.4-52.3l-0.8-0.6c-2.1-0.1-4.2-0.4-6.2-1
	c-2.8-0.6-5.6-1-8.4-1.1c-11.5,0.9-22.3,5.6-30.9,13.4c-11.2,11.3-17.5,26.7-17.5,42.6c0,13.7,5.7,16.9,9.2,16.9
	c4.9-1.7,9.4-4.2,13.3-7.5c8-6.6,15.3-14.1,21.7-22.3h0.3L378.3,134.5z M661.9,77.7c3.7-0.1,7.4,0.5,10.9,1.7
	c-1.1,9.1-3.2,18-6.2,26.6c-3.4,5.7-7.5,11-12.2,15.7c-6.2,6.7-12.8,11.4-15.2,11.4c-3,0-4.3-4.3-4.3-10.5c0.2-9,2.1-18,5.7-26.3
	c2.7-7.2,7.8-13.2,14.4-17.1C657.2,78.2,659.6,77.7,661.9,77.7L661.9,77.7z M662.4,134.5c-1.6,7.6,1.4,9.4,3.3,9.4
	c8.8-3.4,16.8-8.5,23.5-15.1l-1.7-3.2c-3.6,3-7.6,5.6-11.9,7.6c-1.4,0-1.1-2.2-0.3-7.1c3-18.1,7-36.1,10.5-52.3l-0.8-0.6
	c-2.1-0.1-4.2-0.4-6.2-1c-2.8-0.6-5.6-1-8.4-1.1c-11.5,0.9-22.4,5.6-30.9,13.4c-11.2,11.4-17.4,26.7-17.4,42.6
	c0,13.7,5.7,16.9,9.2,16.9c4.8-1.7,9.4-4.2,13.3-7.5c8-6.6,15.2-14.1,21.6-22.3h0.3L662.4,134.5z M614.6,71
	c-10.1,0.5-19.6,4.5-27,11.4c-10.5,10.4-16.5,24.5-16.8,39.3c0,14,6.4,22.1,16,22.1c11.2-1.5,21.6-6.7,29.6-14.7l-2-3.7
	c-5.3,5.2-12.2,8.5-19.6,9.3c-8.1,0-11.1-7.1-11.1-16.6c-0.1-10.7,2.7-21.2,7.9-30.5c3.6-6,7.8-9.5,12.4-9.5
	c4.5,0.2,8.6,2.6,11.1,6.4c1.6,2.2,3.6,1.6,5.7,0.2c2.4-1.4,4-3.8,4.3-6.5C625.1,74.8,620.3,71,614.6,71L614.6,71z M565.5,125.6
	c-3.5,3-7.5,5.4-11.9,7.1c-1.4,0-1-1.7,0.1-6.7l12.1-55h-1.6l-10.5,4.3c-1.3,8.1-3.2,16.2-5.5,24.1c-3.6,8.4-23.8,34.5-32,34.5
	c-4.1,0-3.6-5.1-1.6-14.6l8.3-38c1.4-6.2,1.3-10.2-3-10.2c-3.2,0-12.6,6.2-20.9,14.1l1.8,3.3c2.7-2.6,5.9-4.5,9.4-5.7
	c1.4,0,0.8,2.8-0.6,8.9l-7.5,33.3c-3.8,16.8,2.4,19,4.3,19c4.7-0.6,9.2-2.5,13-5.4c10.1-7.6,18.9-16.8,26-27.3h0.5l-4.4,20.3
	c-1.9,8.4-1,12.4,2.5,12.4c8.7-3.4,16.6-8.6,23.3-15.1L565.5,125.6z M295.8,125.4c-5.6,5.5-12.9,8.9-20.7,9.5
	c-10.3,0-12-10.8-12-19.1c0.1-1.3,0.3-2.6,0.5-3.8c15.2-4.4,42-14.6,42-29.1c-0.2-6.8-5.8-12.2-12.6-12c0,0,0,0,0,0h-0.7
	c-8.6,0.9-16.7,4.3-23.3,9.7c-11.7,10-18.4,24.6-18.4,39.9c0,18.8,10.3,23.2,16.3,23.2c5,0,16.6-1.7,30.9-14.7L295.8,125.4z
	 M279.7,79c1.7-0.9,3.6-1.4,5.6-1.4c4.1-0.3,7.6,2.9,7.9,7c0,0,0,0,0,0c0,0.3,0,0.5,0,0.8c0,8.5-6.8,15.4-28.8,21.9
	C267.2,89.6,274.8,81.7,279.7,79L279.7,79z M484.8,125.5c-5.6,5.5-12.9,8.8-20.6,9.4c-10.3,0-12-10.8-12-19.1
	c0.1-1.3,0.3-2.6,0.5-3.8c15.2-4.5,42-14.6,42-29.1c-0.2-6.8-5.8-12.2-12.6-12h-0.8c-8.5,0.9-16.6,4.3-23.3,9.7
	c-11.7,9.9-18.4,24.6-18.4,39.9c0,18.8,10.3,23.2,16.3,23.2c5,0,16.5-1.6,30.9-14.6L484.8,125.5z M468.7,79c1.7-0.9,3.6-1.4,5.5-1.4
	c4.2-0.2,7.7,3,7.9,7.1l0,0c0,0.2,0,0.5,0,0.7c0,8.6-6.8,15.5-28.8,22C456.2,89.6,463.8,81.7,468.7,79L468.7,79z M333.1,128.3
	c-7.4,9-18,15.7-22.7,15.7c-2.8,0-5.5-3.3-2.3-18c5-23.8,11-52.9,16-76.6c1.4-6.1,0.6-7-6.3-7.1H314l0.6-3.6
	c7.5-0.8,14.8-2.7,21.8-5.6c1.4,0,1.6,1.3,0.9,4.5c-5.8,27.8-12.6,61.4-18.7,89.8c-0.9,4.5-0.3,5.4,0.6,5.4
	c4.4-1.8,8.4-4.6,11.6-8.2L333.1,128.3z M435.9,128.3c-7.4,9-18,15.7-22.7,15.7c-2.9,0-5.5-3.3-2.3-18c5-23.8,11-52.9,16-76.6
	c1.4-6.1,0.6-7-6.3-7.1h-3.8l0.6-3.6c7.5-0.8,14.8-2.7,21.8-5.6c1.4,0,1.6,1.3,0.9,4.5c-5.8,27.8-12.6,61.4-18.7,89.8
	c-0.9,4.5-0.3,5.4,0.6,5.4c4.4-1.8,8.4-4.6,11.6-8.2L435.9,128.3z M73.5,50.1c-1.7-1-2.2-3.1-1.3-4.8c9.4-13.1,10.4-30.5,2.5-44.6
	L74.3,0c-1.2,1-1.9,2.5-2,4c0.9,1.9,1.8,3.7,2.8,5.4c6.4,11.8-0.8,34.3-8.5,36.5C46.3,51.8,20.3,61,8.1,86.7l0,0
	c0,0.1,0,0.1,0.1,0.1h0.1C25.7,64.4,58,56.9,60.7,56.2c1.4-0.3-2.1,3.9-2.9,5.1c-2.2,1.8-4.8,3.2-7.5,4.1
	c-6.9,2.9-37.5,16.8-47.8,41.9l0,0c0,0.1,0.1,0.1,0.1,0.1h0.1C15,92.5,31.2,81.3,49.5,75c0.6-0.2,0.7,0.1,0.6,0.4
	c-0.1,1.5-2.4,5.7-9.9,10.3c-14,8.4-35.8,23.1-40.2,43.5l0,0c0,0.1,0.1,0.1,0.1,0.1h0.1c4.9-10.2,18.8-24.6,38-32.9
	c0.1-0.1,0.3-0.1,0.4,0.1c0,0,0,0,0,0c0,0.1,0,0.2,0,0.3c-1,3.9-3.1,7.4-6,10.2c-6.1,5.7-29.3,18.7-31,42.4l0,0
	c0,0.1,0.1,0.1,0.1,0.1c0.1,0,0.1,0,0.1-0.1l0,0c5.5-16.8,25.4-30.1,29.3-31.5c0.5-0.2,0.5,0.2,0.5,0.4c0.2,4.4-1.5,8.7-4.6,11.8
	c-4.4,3.4-19.2,13.7-20.1,31.5l0,0c0,0,0.1,0,0.1,0h0.1c2.8-12.5,17-20.9,20-22c0.2,0,0.4,0,0.5,0.5c0.1,3.1-1.2,6.1-3.7,8.1
	c-8.2,5.9-12.6,15.6-11.6,25.7l0,0c0,0,0.1,0,0.1,0c0,0,0.1,0,0.1,0l0,0c0.4-8.3,5.3-15.8,12.8-19.5c0.9-0.3,1,0,1,1.3
	c0,2.8-0.9,5.5-2.6,7.7c-4.7,6.5-6.3,14.8-4.5,22.6h0.1c0.1,0,0.1,0,0.1-0.1l0,0c-0.1-9.6,3.7-15.2,6.6-16.6c0.6-0.3,0.8-0.2,1,0.9
	c0.6,2.2,0.4,4.6-0.7,6.7c-3.1,11.7,2,24.1,12.5,30.2l0,0c0.1,0,0.1,0,0.1-0.1l0,0c0,0,0-0.1,0-0.1l0,0c-5.9-5.9-9.1-14.1-8.7-22.5
	c0.3-2.4,1-5.4,2.8-4.2c2.8,3.6,4.3,8.1,4,12.6l0,0c0,0.1,0.1,0.1,0.1,0.1c0,0,0.1,0,0.1-0.1l0,0c3.2-8.4,1.2-18-5.2-24.4
	c-1.3-2.7-1.8-5.7-1.4-8.7c0.3-1.6,1.1-2.3,2.2-1.6c4.9,3.7,7.7,9.5,7.7,15.7l0,0c0,0.1,0.1,0.1,0.2,0.1l0,0
	c2.2-7.8,1.8-15.7-7.3-25c-2.8-2.6-1.2-10.8-0.7-12.7c0.1-0.6,0.7-1,1.4-0.9c0,0,0,0,0,0l0,0c0.3,0,0.5,0.2,0.7,0.4
	c0,0,13.7,13.3,10.4,27.3l0,0c0,0.1,0,0.1,0.1,0.1h0.1c4.3-5.6,4.7-17.5-2-28.5c-4.1-6.7-7.8-10.1-7.7-12.5c0.1-2.5,0.7-4.9,1.6-7.2
	c0.4-0.6,1.1-0.9,1.8-0.6l0.1,0.1c2.5,1.7,18.9,16.3,14.2,34.7l0,0c0,0.1,0,0.1,0.1,0.1l0,0c9.4-13.3,4.1-31-10-45
	c-2-2,0-8.8,1.9-11c0.3-0.4,0.9-0.5,1.3-0.1l0,0c9.8,5.7,22.7,27.1,17.7,41.2l0,0c0,0.1,0.1,0.1,0.1,0.1h0.1
	c11.1-14.4,1.4-37.9-10.9-53.8c-1.4-2.8,1.8-6.6,2.1-7.1c0.7-0.9,1-0.8,1.5-0.4C75,86.7,79.9,110.4,74.4,123l0,0
	c0,0.1,0,0.1,0.1,0.1h0.1c13.1-16,8.2-41.4-10.1-60.9c-1.2-1.4-0.7-2.8,0.6-4.7c0.3-0.5,0.9-0.7,1.4-0.5c0.1,0.1,0.2,0.1,0.3,0.2
	C93.7,76.4,91,96,86.3,108.5l0,0c0,0.1,0.1,0.1,0.1,0.1l0,0 M86.5,108.6L86.5,108.6c8.7-10.1,17.7-37.4-13-58.6L86.5,108.6z
	 M81.4,175.1c-6.1-7.6-8.8-17.4-7.3-27.1l0,0c0-0.1-0.1-0.1-0.1-0.1h-0.1c-5.7,6.8-24.1,26.2-22.1,45.1c0,0.2,0.2,1.7,0.2,1.7
	c1.7,10,11.1,16.7,21.1,15c8.9-1.5,15.4-9.4,15.2-18.4C88.1,185.2,85.7,179.5,81.4,175.1L81.4,175.1z"/>
</svg>
